<svg width="62" height="62" viewBox="0 0 62 62" fill="none" xmlns="http://www.w3.org/2000/svg">
<path fill-rule="evenodd" clip-rule="evenodd" d="M28.665 0.0353704C26.5884 0.272308 25.6832 0.411935 24.3929 0.694035C12.7383 3.24251 3.67324 12.0818 0.832052 23.668C0.156547 26.4221 -0.00268457 27.8294 3.40202e-05 31.0177C0.00275261 34.2068 0.166515 35.6536 0.832052 38.3674C2.02266 43.2228 4.22964 47.505 7.50438 51.3139C12.4466 57.0622 19.3592 60.772 27.1115 61.8363C28.7064 62.0553 33.2934 62.0544 34.8789 61.8348C43.9086 60.5843 51.5972 55.8858 56.615 48.5519C59.294 44.6363 60.9878 40.3032 61.7594 35.3911C62.0795 33.3536 62.0803 28.6871 61.7611 26.6554C60.7012 19.9115 57.7105 13.907 53.077 9.21979C48.3033 4.39084 42.3327 1.36577 35.4352 0.281108C34.2312 0.0917904 29.6329 -0.0751402 28.665 0.0353704ZM27.6596 18.7625C28.103 18.9579 39.9422 29.4663 40.2644 29.9505C40.5852 30.4327 40.5852 31.6027 40.2644 32.0849C40.1343 32.2803 37.3265 34.8425 34.0249 37.7786C29.9318 41.4184 27.8603 43.1761 27.5141 43.3029C25.9494 43.8759 24.2123 41.9394 24.9726 40.4696C25.078 40.266 27.4373 38.0826 30.2156 35.6173C32.994 33.1521 35.2673 31.0838 35.2673 31.0211C35.2673 30.9584 32.9726 28.8671 30.1681 26.3737C24.9577 21.741 24.7813 21.5538 24.7813 20.6545C24.7813 19.2117 26.3454 18.1836 27.6596 18.7625Z" fill="#713ED9"/>
</svg>
