<svg width="62" height="62" viewBox="0 0 62 62" fill="none" xmlns="http://www.w3.org/2000/svg">
<path fill-rule="evenodd" clip-rule="evenodd" d="M33.335 0.0353704C35.4116 0.272308 36.3168 0.411935 37.6071 0.694035C49.2617 3.24251 58.3268 12.0818 61.1679 23.668C61.8435 26.4221 62.0027 27.8294 62 31.0177C61.9972 34.2068 61.8335 35.6536 61.1679 38.3674C59.9773 43.2228 57.7704 47.505 54.4956 51.3139C49.5534 57.0622 42.6408 60.772 34.8885 61.8363C33.2936 62.0553 28.7066 62.0544 27.1211 61.8348C18.0914 60.5843 10.4028 55.8858 5.38496 48.5519C2.70598 44.6363 1.01218 40.3032 0.240612 35.3911C-0.0795326 33.3536 -0.0803108 28.6871 0.23893 26.6554C1.29879 19.9115 4.2895 13.907 8.92301 9.21979C13.6967 4.39084 19.6673 1.36577 26.5648 0.281108C27.7688 0.0917904 32.3671 -0.0751402 33.335 0.0353704ZM34.3404 18.7625C33.897 18.9579 22.0578 29.4663 21.7356 29.9505C21.4148 30.4327 21.4148 31.6027 21.7356 32.0849C21.8657 32.2803 24.6735 34.8425 27.9751 37.7786C32.0682 41.4184 34.1397 43.1761 34.4859 43.3029C36.0506 43.8759 37.7877 41.9394 37.0274 40.4696C36.922 40.266 34.5627 38.0826 31.7844 35.6173C29.006 33.1521 26.7327 31.0838 26.7327 31.0211C26.7327 30.9584 29.0274 28.8671 31.8319 26.3737C37.0423 21.741 37.2187 21.5538 37.2187 20.6545C37.2187 19.2117 35.6546 18.1836 34.3404 18.7625Z" fill="#713ED9"/>
</svg>
