<svg width="31" height="26" viewBox="0 0 31 26" fill="none" xmlns="http://www.w3.org/2000/svg">
<path d="M30.8247 3.54836C29.7171 4.03915 28.5273 4.37076 27.2764 4.52065C28.5671 3.74838 29.5327 2.53291 29.993 1.10103C28.7804 1.82129 27.4533 2.32827 26.0693 2.59994C25.1387 1.60624 23.906 0.947597 22.5626 0.726274C21.2193 0.50495 19.8404 0.733327 18.6401 1.37595C17.4399 2.01857 16.4854 3.03948 15.9248 4.28017C15.3642 5.52087 15.2289 6.91193 15.5399 8.2374C13.0829 8.11404 10.6792 7.47542 8.48499 6.36298C6.29076 5.25055 4.35494 3.68918 2.80319 1.78018C2.27261 2.69544 1.96752 3.75661 1.96752 4.88676C1.96693 5.90415 2.21747 6.90596 2.69691 7.80329C3.17636 8.70063 3.86988 9.46576 4.71595 10.0308C3.73474 9.99956 2.77517 9.73443 1.91712 9.25745V9.33704C1.91702 10.764 2.4106 12.147 3.31412 13.2514C4.21764 14.3559 5.47545 15.1137 6.87411 15.3963C5.96387 15.6427 5.00955 15.679 4.08323 15.5024C4.47785 16.7302 5.24653 17.8039 6.28166 18.5731C7.3168 19.3423 8.56656 19.7686 9.856 19.7922C7.66711 21.5105 4.96385 22.4426 2.18108 22.4385C1.68814 22.4386 1.19562 22.4099 0.706055 22.3523C3.53073 24.1685 6.81885 25.1323 10.177 25.1286C21.5448 25.1286 27.7593 15.7133 27.7593 7.54764C27.7593 7.28235 27.7526 7.0144 27.7407 6.74911C28.9495 5.87494 29.9929 4.79244 30.8221 3.55234L30.8247 3.54836Z" fill="#FF7800"/>
</svg>
